<svg width="50" height="50" viewBox="0 0 50 50" fill="none" xmlns="http://www.w3.org/2000/svg">
<g clip-path="url(#clip0_2533_12187)">
<path d="M20.5209 39.5529L31.0113 10.4856L50.0401 10.4471L47.5882 16.7645L36.5209 16.7933L34.5113 22.0241L44.5401 21.9952L42.2036 27.976L32.1843 28.0048L28.4728 39.5337L20.5209 39.5529Z" fill="white"/>
<mask id="mask0_2533_12187" style="mask-type:luminance" maskUnits="userSpaceOnUse" x="10" y="12" width="27" height="22">
<path d="M10.5209 15.7741L11.5786 29.6395L29.069 33.851L36.0689 15.3606L25.5305 12.1683L10.5209 15.7741Z" fill="white"/>
</mask>
<g mask="url(#mask0_2533_12187)">
<path d="M32.8189 17.9183L14.6362 18.6972L32.9535 19.3222L32.8189 17.9183Z" fill="white"/>
<path d="M35.1458 19.3221L16.9631 20.101L35.2804 20.7356L35.1458 19.3221Z" fill="white"/>
<path d="M33.7612 20.7356L18.9247 21.5144L33.8958 22.1394L33.7612 20.7356Z" fill="white"/>
<path d="M38.0882 22.1395L20.5209 22.9184L38.2324 23.553L38.0882 22.1395Z" fill="white"/>
<path d="M39.0689 23.553L21.7997 24.3318L39.2131 24.9568L39.0689 23.553Z" fill="white"/>
<path d="M40.0497 24.9568L22.3574 25.7356L40.194 26.3702L40.0497 24.9568Z" fill="white"/>
<path d="M41.0401 26.3702L23.0016 27.1491L41.1747 27.7741L41.0401 26.3702Z" fill="white"/>
<path d="M41.5016 27.774L23.5112 28.5529L41.6362 29.1875L41.5016 27.774Z" fill="white"/>
</g>
<path d="M4.27085 15.1394L19.4247 22.4567L2.63623 33.7548L4.27085 15.1394Z" fill="white"/>
<path d="M4.0689 32.5817L5.30929 31.5528C5.26121 31.3221 5.23236 31.072 5.21313 30.8028L4.8189 23.7355L4.50159 18.0624L4.42467 16.6682C4.33813 15.0144 4.96313 13.7355 6.03044 13.0817C5.75159 13.1297 5.48236 13.2259 5.23236 13.3509C5.20352 13.3605 5.18429 13.3797 5.15544 13.3894C5.14582 13.3894 5.13621 13.399 5.12659 13.4086C5.10736 13.4182 5.08813 13.4374 5.05929 13.447C5.04006 13.447 5.03044 13.4663 5.01121 13.4759C4.99198 13.4855 4.97275 13.4951 4.96313 13.5047C4.93429 13.524 4.89582 13.5432 4.86698 13.572C4.86698 13.572 4.84775 13.5817 4.83813 13.5913C4.80929 13.6105 4.79005 13.6297 4.76121 13.649C4.76121 13.649 4.74198 13.6586 4.74198 13.6682C4.71313 13.6874 4.68429 13.7163 4.65544 13.7355C3.97275 14.3124 3.4439 15.2259 3.1939 16.4182L2.8189 18.1971L1.64582 23.7355L0.0881321 31.0721C-0.152253 32.1971 -0.0464834 33.072 0.338132 33.649C1.26121 34.1105 2.60736 33.7836 4.0689 32.5817Z" fill="#009CDB"/>
<path d="M19.6362 21.0145L14.0785 17.3606L8.52077 13.7068C7.67461 13.1491 6.81885 12.9664 6.03038 13.101C4.96308 13.7549 4.32846 15.0241 4.42461 16.6779L4.50154 18.0722C4.74192 18.101 4.99192 18.1491 5.24192 18.226L11.9054 20.1202L17.2515 21.6395L18.5688 22.0145C20.1265 22.4568 20.8477 23.4087 20.7131 24.5337C20.7131 24.5337 20.7131 24.5337 20.7131 24.5433C21.415 23.3126 21.0881 21.976 19.6362 21.0145Z" fill="#FF6D2D"/>
<path d="M4.26121 33.8125L5.95352 32.9375L5.98237 32.9182L11.3574 30.1586L18.4631 26.5048C19.5593 25.9471 20.3189 25.2548 20.7228 24.524C20.8574 23.399 20.1362 22.4471 18.5785 22.0048L17.2612 21.6298C17.0689 21.8317 16.8477 22.0336 16.6074 22.2355L10.3381 27.4086L5.30929 31.5528L4.0689 32.5817C2.60737 33.7836 1.26121 34.1105 0.338135 33.649C0.982366 34.6298 2.40544 34.7644 4.26121 33.8125Z" fill="#6CC72B"/>
</g>
<defs>
<clipPath id="clip0_2533_12187">
<rect width="50" height="50" fill="white"/>
</clipPath>
</defs>
</svg>
